<svg width="584" height="397" viewBox="0 0 584 397" fill="none" xmlns="http://www.w3.org/2000/svg">
<path d="M293.212 393.603C428.479 393.603 538.135 385.819 538.135 376.218C538.135 366.617 428.479 358.833 293.212 358.833C157.945 358.833 48.2891 366.617 48.2891 376.218C48.2891 385.819 157.945 393.603 293.212 393.603Z" fill="#515151"/>
<g filter="url(#filter0_d_1668_6921)">
<path d="M490.737 373.252C490.737 381.439 402.302 388.075 293.212 388.075C184.122 388.075 95.6875 381.438 95.6875 373.252C95.6875 365.065 95.6875 334.959 95.6875 334.959H490.737C490.737 334.959 490.737 366.697 490.737 373.252Z" fill="#242424"/>
</g>
<path d="M490.737 335.084C490.737 343.746 402.302 350.219 293.212 350.219C184.122 350.219 95.6875 344.034 95.6875 336.405C95.6875 328.776 184.122 322.591 293.212 322.591C402.302 322.591 490.737 327.455 490.737 335.084Z" fill="#FFCB08"/>
<path d="M293.212 348.824C402.303 348.824 490.737 342.64 490.737 335.01C490.737 327.381 402.303 321.196 293.212 321.196C184.122 321.196 95.6875 327.381 95.6875 335.01C95.6875 342.64 184.122 348.824 293.212 348.824Z" fill="#FFCB08"/>
<g filter="url(#filter1_d_1668_6921)">
<path d="M427.963 332.512C427.963 338.097 367.634 342.624 293.214 342.624C218.794 342.624 158.465 338.097 158.465 332.512C158.465 326.927 158.465 306.389 158.465 306.389H427.963C427.963 306.389 427.963 328.041 427.963 332.512Z" fill="#FFCB08"/>
</g>
<path d="M427.963 306.474C427.963 312.383 367.634 316.799 293.214 316.799C218.794 316.799 158.465 312.58 158.465 307.375C158.465 302.17 218.794 297.951 293.214 297.951C367.634 297.951 427.963 301.27 427.963 306.474Z" fill="#FFCB08"/>
<path d="M293.214 315.848C367.634 315.848 427.963 311.629 427.963 306.424C427.963 301.219 367.634 297 293.214 297C218.794 297 158.465 301.219 158.465 306.424C158.465 311.629 218.794 315.848 293.214 315.848Z" fill="#FFCB08"/>
<g opacity="0.59" filter="url(#filter2_i_1668_6921)">
<path d="M292.845 316.075C362.164 316.075 418.358 312.898 418.358 308.98C418.358 305.061 362.164 301.885 292.845 301.885C223.526 301.885 167.332 305.061 167.332 308.98C167.332 312.898 223.526 316.075 292.845 316.075Z" fill="#5B5B5B" fill-opacity="0.5"/>
</g>
<path d="M287.689 312.475C361.211 312.475 420.812 252.873 420.812 179.352C420.812 105.83 361.211 46.2285 287.689 46.2285C214.168 46.2285 154.566 105.83 154.566 179.352C154.566 252.873 214.168 312.475 287.689 312.475Z" fill="#FFCB08"/>
<path d="M287.69 293.83C350.915 293.83 402.169 242.576 402.169 179.351C402.169 116.126 350.915 64.8721 287.69 64.8721C224.465 64.8721 173.211 116.126 173.211 179.351C173.211 242.576 224.465 293.83 287.69 293.83Z" fill="#252525"/>
<path d="M287.69 290.529C349.092 290.529 398.868 240.753 398.868 179.351C398.868 117.949 349.092 68.1729 287.69 68.1729C226.288 68.1729 176.512 117.949 176.512 179.351C176.512 240.753 226.288 290.529 287.69 290.529Z" fill="#FFCB08"/>
<path d="M287.689 305.341C357.272 305.341 413.679 248.934 413.679 179.351C413.679 109.769 357.272 53.3613 287.689 53.3613C218.107 53.3613 161.699 109.769 161.699 179.351C161.699 248.934 218.107 305.341 287.689 305.341Z" stroke="#252525" stroke-width="0.9464" stroke-miterlimit="10"/>
<path d="M217.64 212.42C213.68 212.42 210.04 211.5 206.72 209.66C203.4 207.78 200.76 205.2 198.8 201.92C196.88 198.6 195.92 194.86 195.92 190.7C195.92 186.54 196.88 182.82 198.8 179.54C200.76 176.22 203.4 173.64 206.72 171.8C210.04 169.96 213.68 169.04 217.64 169.04C221.64 169.04 225.28 169.96 228.56 171.8C231.88 173.64 234.5 176.22 236.42 179.54C238.34 182.82 239.3 186.54 239.3 190.7C239.3 194.86 238.34 198.6 236.42 201.92C234.5 205.2 231.88 207.78 228.56 209.66C225.24 211.5 221.6 212.42 217.64 212.42ZM217.64 201.5C220.64 201.5 223 200.52 224.72 198.56C226.48 196.6 227.36 193.98 227.36 190.7C227.36 187.34 226.48 184.7 224.72 182.78C223 180.82 220.64 179.84 217.64 179.84C214.6 179.84 212.22 180.82 210.5 182.78C208.78 184.7 207.92 187.34 207.92 190.7C207.92 194.02 208.78 196.66 210.5 198.62C212.22 200.54 214.6 201.5 217.64 201.5ZM273.267 169.7V179.06H256.347V186.5H268.827V195.44H256.347V212H244.587V169.7H273.267ZM306.899 169.7V179.06H289.979V186.5H302.459V195.44H289.979V212H278.219V169.7H306.899ZM323.612 179.12V186.02H337.112V194.96H323.612V202.58H338.912V212H311.852V169.7H338.912V179.12H323.612ZM366.143 212L357.743 196.4H356.483V212H344.723V169.7H363.263C366.663 169.7 369.543 170.3 371.903 171.5C374.263 172.66 376.043 174.28 377.243 176.36C378.443 178.4 379.043 180.7 379.043 183.26C379.043 186.14 378.243 188.68 376.643 190.88C375.083 193.04 372.783 194.58 369.743 195.5L379.283 212H366.143ZM356.483 188.36H362.303C363.903 188.36 365.103 187.98 365.903 187.22C366.703 186.46 367.103 185.36 367.103 183.92C367.103 182.56 366.683 181.5 365.843 180.74C365.043 179.94 363.863 179.54 362.303 179.54H356.483V188.36Z" fill="#252525"/>
<path d="M249.839 153.081C249.378 153.081 248.959 152.976 248.581 152.766C248.21 152.557 247.916 152.26 247.701 151.877C247.491 151.488 247.386 151.038 247.386 150.529C247.386 150.026 247.494 149.583 247.71 149.2C247.931 148.81 248.231 148.514 248.608 148.31C248.986 148.101 249.408 147.996 249.875 147.996C250.342 147.996 250.764 148.101 251.142 148.31C251.519 148.514 251.816 148.807 252.031 149.191C252.253 149.574 252.364 150.02 252.364 150.529C252.364 151.038 252.25 151.488 252.022 151.877C251.801 152.26 251.498 152.557 251.115 152.766C250.731 152.976 250.306 153.081 249.839 153.081ZM249.839 152.362C250.132 152.362 250.408 152.293 250.666 152.155C250.923 152.018 251.13 151.811 251.285 151.536C251.447 151.26 251.528 150.925 251.528 150.529C251.528 150.134 251.45 149.799 251.294 149.523C251.139 149.248 250.935 149.044 250.684 148.912C250.432 148.774 250.159 148.706 249.866 148.706C249.566 148.706 249.291 148.774 249.039 148.912C248.794 149.044 248.596 149.248 248.446 149.523C248.297 149.799 248.222 150.134 248.222 150.529C248.222 150.931 248.294 151.269 248.437 151.545C248.587 151.82 248.785 152.027 249.03 152.164C249.276 152.296 249.546 152.362 249.839 152.362ZM255.837 147.987C256.436 147.987 256.921 148.169 257.293 148.535C257.664 148.894 257.85 149.415 257.85 150.098V153H257.041V150.215C257.041 149.724 256.918 149.349 256.673 149.092C256.427 148.828 256.092 148.697 255.667 148.697C255.235 148.697 254.891 148.831 254.633 149.101C254.382 149.37 254.256 149.763 254.256 150.278V153H253.439V148.077H254.256V148.777C254.418 148.526 254.636 148.331 254.912 148.193C255.193 148.056 255.502 147.987 255.837 147.987ZM260.003 146.352V153H259.185V146.352H260.003ZM265.637 148.077L262.672 155.318H261.827L262.798 152.946L260.812 148.077H261.72L263.265 152.066L264.792 148.077H265.637ZM269.851 148.75V151.652C269.851 151.892 269.902 152.063 270.004 152.164C270.106 152.26 270.282 152.308 270.534 152.308H271.136V153H270.399C269.944 153 269.602 152.895 269.375 152.686C269.147 152.476 269.033 152.132 269.033 151.652V148.75H268.396V148.077H269.033V146.837H269.851V148.077H271.136V148.75H269.851ZM274.57 147.987C274.941 147.987 275.277 148.068 275.576 148.229C275.876 148.385 276.109 148.622 276.277 148.939C276.451 149.257 276.538 149.643 276.538 150.098V153H275.729V150.215C275.729 149.724 275.606 149.349 275.361 149.092C275.115 148.828 274.78 148.697 274.354 148.697C273.923 148.697 273.579 148.831 273.321 149.101C273.07 149.37 272.944 149.763 272.944 150.278V153H272.126V146.352H272.944V148.777C273.106 148.526 273.327 148.331 273.609 148.193C273.896 148.056 274.217 147.987 274.57 147.987ZM278.295 147.277C278.14 147.277 278.008 147.223 277.9 147.115C277.792 147.008 277.738 146.876 277.738 146.72C277.738 146.564 277.792 146.433 277.9 146.325C278.008 146.217 278.14 146.163 278.295 146.163C278.445 146.163 278.571 146.217 278.673 146.325C278.78 146.433 278.834 146.564 278.834 146.72C278.834 146.876 278.78 147.008 278.673 147.115C278.571 147.223 278.445 147.277 278.295 147.277ZM278.691 148.077V153H277.873V148.077H278.691ZM281.827 153.081C281.45 153.081 281.111 153.018 280.812 152.892C280.512 152.76 280.276 152.581 280.102 152.353C279.928 152.12 279.832 151.853 279.815 151.554H280.659C280.683 151.799 280.797 152 281 152.155C281.21 152.311 281.483 152.389 281.818 152.389C282.129 152.389 282.375 152.32 282.555 152.182C282.734 152.045 282.824 151.871 282.824 151.661C282.824 151.446 282.728 151.287 282.537 151.185C282.345 151.077 282.049 150.973 281.647 150.871C281.282 150.775 280.982 150.679 280.749 150.583C280.521 150.481 280.324 150.335 280.156 150.143C279.994 149.945 279.913 149.688 279.913 149.37C279.913 149.119 279.988 148.888 280.138 148.679C280.288 148.469 280.5 148.304 280.776 148.184C281.051 148.059 281.366 147.996 281.719 147.996C282.264 147.996 282.704 148.134 283.04 148.409C283.375 148.685 283.555 149.062 283.579 149.541H282.761C282.743 149.284 282.639 149.077 282.447 148.921C282.261 148.765 282.01 148.688 281.692 148.688C281.399 148.688 281.165 148.75 280.991 148.876C280.818 149.002 280.731 149.167 280.731 149.37C280.731 149.532 280.782 149.667 280.884 149.775C280.991 149.876 281.123 149.96 281.279 150.026C281.441 150.086 281.662 150.155 281.944 150.233C282.297 150.329 282.585 150.425 282.806 150.52C283.028 150.61 283.217 150.748 283.372 150.934C283.534 151.119 283.618 151.362 283.624 151.661C283.624 151.931 283.549 152.173 283.399 152.389C283.249 152.605 283.037 152.775 282.761 152.901C282.492 153.021 282.18 153.081 281.827 153.081ZM293.732 148.077L292.195 153H291.351L290.165 149.092L288.979 153H288.134L286.589 148.077H287.425L288.557 152.209L289.779 148.077H290.614L291.809 152.218L292.923 148.077H293.732ZM299.035 150.35C299.035 150.505 299.026 150.67 299.008 150.844H295.073C295.103 151.329 295.268 151.709 295.567 151.985C295.873 152.254 296.241 152.389 296.672 152.389C297.026 152.389 297.319 152.308 297.553 152.147C297.792 151.979 297.96 151.757 298.056 151.482H298.936C298.804 151.955 298.541 152.341 298.146 152.641C297.75 152.934 297.259 153.081 296.672 153.081C296.205 153.081 295.786 152.976 295.414 152.766C295.049 152.557 294.762 152.26 294.552 151.877C294.342 151.488 294.238 151.038 294.238 150.529C294.238 150.02 294.339 149.574 294.543 149.191C294.747 148.807 295.031 148.514 295.396 148.31C295.768 148.101 296.193 147.996 296.672 147.996C297.139 147.996 297.553 148.098 297.912 148.301C298.271 148.505 298.547 148.786 298.739 149.146C298.936 149.499 299.035 149.9 299.035 150.35ZM298.191 150.179C298.191 149.868 298.122 149.601 297.984 149.379C297.846 149.152 297.658 148.981 297.418 148.867C297.184 148.747 296.924 148.688 296.636 148.688C296.223 148.688 295.87 148.819 295.576 149.083C295.289 149.346 295.124 149.712 295.082 150.179H298.191ZM304.606 150.35C304.606 150.505 304.597 150.67 304.579 150.844H300.644C300.674 151.329 300.839 151.709 301.138 151.985C301.444 152.254 301.812 152.389 302.243 152.389C302.597 152.389 302.89 152.308 303.124 152.147C303.364 151.979 303.531 151.757 303.627 151.482H304.508C304.376 151.955 304.112 152.341 303.717 152.641C303.322 152.934 302.83 153.081 302.243 153.081C301.776 153.081 301.357 152.976 300.986 152.766C300.62 152.557 300.333 152.26 300.123 151.877C299.914 151.488 299.809 151.038 299.809 150.529C299.809 150.02 299.911 149.574 300.114 149.191C300.318 148.807 300.602 148.514 300.968 148.31C301.339 148.101 301.764 147.996 302.243 147.996C302.711 147.996 303.124 148.098 303.483 148.301C303.843 148.505 304.118 148.786 304.31 149.146C304.508 149.499 304.606 149.9 304.606 150.35ZM303.762 150.179C303.762 149.868 303.693 149.601 303.555 149.379C303.417 149.152 303.229 148.981 302.989 148.867C302.756 148.747 302.495 148.688 302.208 148.688C301.794 148.688 301.441 148.819 301.147 149.083C300.86 149.346 300.695 149.712 300.653 150.179H303.762ZM308.435 153L306.503 150.826V153H305.685V146.352H306.503V150.26L308.399 148.077H309.54L307.222 150.529L309.549 153H308.435ZM314.801 150.35C314.801 150.505 314.792 150.67 314.774 150.844H310.839C310.869 151.329 311.034 151.709 311.333 151.985C311.639 152.254 312.007 152.389 312.438 152.389C312.792 152.389 313.085 152.308 313.319 152.147C313.558 151.979 313.726 151.757 313.822 151.482H314.702C314.571 151.955 314.307 152.341 313.912 152.641C313.517 152.934 313.025 153.081 312.438 153.081C311.971 153.081 311.552 152.976 311.181 152.766C310.815 152.557 310.528 152.26 310.318 151.877C310.109 151.488 310.004 151.038 310.004 150.529C310.004 150.02 310.106 149.574 310.309 149.191C310.513 148.807 310.797 148.514 311.163 148.31C311.534 148.101 311.959 147.996 312.438 147.996C312.906 147.996 313.319 148.098 313.678 148.301C314.038 148.505 314.313 148.786 314.505 149.146C314.702 149.499 314.801 149.9 314.801 150.35ZM313.957 150.179C313.957 149.868 313.888 149.601 313.75 149.379C313.612 149.152 313.424 148.981 313.184 148.867C312.951 148.747 312.69 148.688 312.403 148.688C311.989 148.688 311.636 148.819 311.342 149.083C311.055 149.346 310.89 149.712 310.848 150.179H313.957ZM318.279 147.987C318.878 147.987 319.363 148.169 319.735 148.535C320.106 148.894 320.292 149.415 320.292 150.098V153H319.483V150.215C319.483 149.724 319.36 149.349 319.115 149.092C318.869 148.828 318.534 148.697 318.109 148.697C317.677 148.697 317.333 148.831 317.075 149.101C316.824 149.37 316.698 149.763 316.698 150.278V153H315.88V148.077H316.698V148.777C316.86 148.526 317.078 148.331 317.354 148.193C317.635 148.056 317.944 147.987 318.279 147.987ZM321.322 150.52C321.322 150.017 321.424 149.577 321.627 149.2C321.831 148.816 322.109 148.52 322.463 148.31C322.822 148.101 323.223 147.996 323.667 147.996C324.05 147.996 324.406 148.086 324.736 148.265C325.065 148.439 325.317 148.67 325.49 148.957V146.352H326.317V153H325.49V152.075C325.329 152.368 325.089 152.611 324.772 152.802C324.454 152.988 324.083 153.081 323.658 153.081C323.22 153.081 322.822 152.973 322.463 152.757C322.109 152.542 321.831 152.239 321.627 151.85C321.424 151.461 321.322 151.017 321.322 150.52ZM325.49 150.529C325.49 150.158 325.416 149.835 325.266 149.559C325.116 149.284 324.912 149.074 324.655 148.93C324.403 148.78 324.125 148.706 323.819 148.706C323.514 148.706 323.235 148.777 322.984 148.921C322.732 149.065 322.532 149.275 322.382 149.55C322.232 149.826 322.157 150.149 322.157 150.52C322.157 150.898 322.232 151.227 322.382 151.509C322.532 151.784 322.732 151.997 322.984 152.147C323.235 152.29 323.514 152.362 323.819 152.362C324.125 152.362 324.403 152.29 324.655 152.147C324.912 151.997 325.116 151.784 325.266 151.509C325.416 151.227 325.49 150.901 325.49 150.529Z" fill="#252525"/>
<path d="M526.528 24.3467L541.221 29.5127L416.354 92.4157L526.528 24.3467Z" fill="#FFCB08"/>
<path d="M541.221 29.5127L543.262 40.2127L416.854 93.1857L416.354 92.4157L541.221 29.5127Z" fill="#6C5600"/>
<path d="M425.387 105.139L525.847 72.6924L516.585 97.1784L425.387 105.139Z" fill="#FFCB08"/>
<path d="M525.846 72.6924L529.816 78.7994L520.554 103.285L516.584 97.1784L525.846 72.6924Z" fill="#6C5600"/>
<path d="M516.585 97.1787L520.555 103.286L426 106.082L425.387 105.14L516.585 97.1787Z" fill="#6C5600"/>
<path d="M452.983 17.9449L479.753 17.0869L411.625 78.4359L452.983 17.9449Z" fill="#FFCB08"/>
<path d="M479.753 17.0869L483.723 23.1939L412.328 79.5179L411.625 78.4359L479.753 17.0869Z" fill="#6C5600"/>
<path d="M6.653 243.581L0 257.663L132.513 213.065L6.653 243.581Z" fill="#FFCB08"/>
<path d="M0 257.663L6.17599 266.636L132.709 213.963L132.513 213.065L0 257.663Z" fill="#6C5600"/>
<path d="M135.214 228.435L41.5195 277.081L65.4465 287.705L135.214 228.435Z" fill="#FFCB08"/>
<path d="M41.5195 277.08L43.0725 284.197L66.9995 294.821L65.4465 287.704L41.5195 277.08Z" fill="#6C5600"/>
<path d="M65.4473 287.705L67.0003 294.822L135.453 229.533L135.214 228.435L65.4473 287.705Z" fill="#6C5600"/>
<path d="M53.7981 186.772L34.3711 205.209L125.895 199.876L53.7981 186.772Z" fill="#FFCB08"/>
<path d="M34.3711 205.209L35.9241 212.325L126.17 201.136L125.895 199.876L34.3711 205.209Z" fill="#6C5600"/>
<path d="M495.091 211.936C507.916 211.936 518.313 201.539 518.313 188.714C518.313 175.889 507.916 165.492 495.091 165.492C482.266 165.492 471.869 175.889 471.869 188.714C471.869 201.539 482.266 211.936 495.091 211.936Z" fill="#515151"/>
<path d="M85.7513 105.731C98.5765 105.731 108.973 95.3343 108.973 82.5091C108.973 69.684 98.5765 59.2871 85.7513 59.2871C72.9261 59.2871 62.5293 69.684 62.5293 82.5091C62.5293 95.3343 72.9261 105.731 85.7513 105.731Z" fill="#515151"/>
<path d="M137.827 62.2195C144.923 62.2195 150.677 56.4664 150.677 49.3695C150.677 42.2727 144.923 36.5195 137.827 36.5195C130.73 36.5195 124.977 42.2727 124.977 49.3695C124.977 56.4664 130.73 62.2195 137.827 62.2195Z" fill="#515151"/>
<path d="M133.093 100.769C136.828 100.769 139.856 97.7413 139.856 94.0062C139.856 90.2711 136.828 87.2432 133.093 87.2432C129.358 87.2432 126.33 90.2711 126.33 94.0062C126.33 97.7413 129.358 100.769 133.093 100.769Z" fill="#515151"/>
<path d="M16.0931 142.7C19.8282 142.7 22.8561 139.672 22.8561 135.937C22.8561 132.202 19.8282 129.174 16.0931 129.174C12.358 129.174 9.33008 132.202 9.33008 135.937C9.33008 139.672 12.358 142.7 16.0931 142.7Z" fill="#515151"/>
<path d="M20.151 6.763C20.151 10.498 17.123 13.526 13.388 13.526C9.653 13.526 6.625 10.498 6.625 6.763C6.625 3.028 9.653 0 13.388 0C17.123 0 20.151 3.028 20.151 6.763Z" fill="#515151"/>
<path d="M508.025 277.692C512.776 277.692 516.628 273.841 516.628 269.089C516.628 264.338 512.776 260.486 508.025 260.486C503.274 260.486 499.422 264.338 499.422 269.089C499.422 273.841 503.274 277.692 508.025 277.692Z" fill="#515151"/>
<path d="M583.146 239.526C583.146 241.726 581.363 243.509 579.163 243.509C576.963 243.509 575.18 241.726 575.18 239.526C575.18 237.326 576.963 235.543 579.163 235.543C581.363 235.542 583.146 237.326 583.146 239.526Z" fill="#515151"/>
<path d="M540.885 171.024C545.856 171.024 549.887 166.993 549.887 162.022C549.887 157.05 545.856 153.02 540.885 153.02C535.913 153.02 531.883 157.05 531.883 162.022C531.883 166.993 535.913 171.024 540.885 171.024Z" fill="#515151"/>
<defs>
<filter id="filter0_d_1668_6921" x="91.6875" y="334.959" width="403.051" height="61.1162" filterUnits="userSpaceOnUse" color-interpolation-filters="sRGB">
<feFlood flood-opacity="0" result="BackgroundImageFix"/>
<feColorMatrix in="SourceAlpha" type="matrix" values="0 0 0 0 0 0 0 0 0 0 0 0 0 0 0 0 0 0 127 0" result="hardAlpha"/>
<feOffset dy="4"/>
<feGaussianBlur stdDeviation="2"/>
<feComposite in2="hardAlpha" operator="out"/>
<feColorMatrix type="matrix" values="0 0 0 0 0 0 0 0 0 0 0 0 0 0 0 0 0 0 0.25 0"/>
<feBlend mode="normal" in2="BackgroundImageFix" result="effect1_dropShadow_1668_6921"/>
<feBlend mode="normal" in="SourceGraphic" in2="effect1_dropShadow_1668_6921" result="shape"/>
</filter>
<filter id="filter1_d_1668_6921" x="154.465" y="306.389" width="277.498" height="44.2354" filterUnits="userSpaceOnUse" color-interpolation-filters="sRGB">
<feFlood flood-opacity="0" result="BackgroundImageFix"/>
<feColorMatrix in="SourceAlpha" type="matrix" values="0 0 0 0 0 0 0 0 0 0 0 0 0 0 0 0 0 0 127 0" result="hardAlpha"/>
<feOffset dy="4"/>
<feGaussianBlur stdDeviation="2"/>
<feComposite in2="hardAlpha" operator="out"/>
<feColorMatrix type="matrix" values="0 0 0 0 0 0 0 0 0 0 0 0 0 0 0 0 0 0 0.25 0"/>
<feBlend mode="normal" in2="BackgroundImageFix" result="effect1_dropShadow_1668_6921"/>
<feBlend mode="normal" in="SourceGraphic" in2="effect1_dropShadow_1668_6921" result="shape"/>
</filter>
<filter id="filter2_i_1668_6921" x="167.332" y="301.885" width="251.025" height="18.1904" filterUnits="userSpaceOnUse" color-interpolation-filters="sRGB">
<feFlood flood-opacity="0" result="BackgroundImageFix"/>
<feBlend mode="normal" in="SourceGraphic" in2="BackgroundImageFix" result="shape"/>
<feColorMatrix in="SourceAlpha" type="matrix" values="0 0 0 0 0 0 0 0 0 0 0 0 0 0 0 0 0 0 127 0" result="hardAlpha"/>
<feOffset dy="4"/>
<feGaussianBlur stdDeviation="2"/>
<feComposite in2="hardAlpha" operator="arithmetic" k2="-1" k3="1"/>
<feColorMatrix type="matrix" values="0 0 0 0 0 0 0 0 0 0 0 0 0 0 0 0 0 0 0.25 0"/>
<feBlend mode="normal" in2="shape" result="effect1_innerShadow_1668_6921"/>
</filter>
</defs>
</svg>
