<svg width="49" height="48" viewBox="0 0 49 48" fill="none" xmlns="http://www.w3.org/2000/svg">
<ellipse cx="24.0992" cy="24" rx="24.0992" ry="24" fill="#F1F1F1"/>
<path fill-rule="evenodd" clip-rule="evenodd" d="M31.6302 20H29.1198V18C29.1198 16.9 28.2161 16 27.1116 16H15.062C13.9574 16 13.0537 16.9 13.0537 18V27C13.0537 28.1 13.9574 29 15.062 29C15.062 30.66 16.4075 32 18.0744 32C19.7412 32 21.0868 30.66 21.0868 29H27.1116C27.1116 30.66 28.4571 32 30.124 32C31.7908 32 33.1364 30.66 33.1364 29H34.1405C34.6928 29 35.1446 28.55 35.1446 28V24.67C35.1446 24.24 35.004 23.82 34.743 23.47L32.4335 20.4C32.2427 20.15 31.9414 20 31.6302 20ZM18.0743 30C17.522 30 17.0701 29.55 17.0701 29C17.0701 28.45 17.522 28 18.0743 28C18.6265 28 19.0784 28.45 19.0784 29C19.0784 29.55 18.6265 30 18.0743 30ZM31.6301 21.5L33.5982 24H29.1198V21.5H31.6301ZM30.1239 30C29.5716 30 29.1198 29.55 29.1198 29C29.1198 28.45 29.5716 28 30.1239 28C30.6762 28 31.1281 28.45 31.1281 29C31.1281 29.55 30.6762 30 30.1239 30Z" fill="#8B96A5"/>
</svg>
