<svg width="48" height="48" viewBox="0 0 48 48" fill="none" xmlns="http://www.w3.org/2000/svg">
<ellipse cx="23.8049" cy="24" rx="23.8049" ry="24" fill="#F1F1F1"/>
<path fill-rule="evenodd" clip-rule="evenodd" d="M31.7394 15H15.8695C14.7784 15 13.8957 15.9 13.8957 17L13.8857 35L17.8532 31H31.7394C32.8305 31 33.7231 30.1 33.7231 29V17C33.7231 15.9 32.8305 15 31.7394 15ZM18.845 22H28.7637C29.3093 22 29.7556 22.45 29.7556 23C29.7556 23.55 29.3093 24 28.7637 24H18.845C18.2995 24 17.8532 23.55 17.8532 23C17.8532 22.45 18.2995 22 18.845 22ZM24.7963 27H18.845C18.2995 27 17.8532 26.55 17.8532 26C17.8532 25.45 18.2995 25 18.845 25H24.7963C25.3418 25 25.7881 25.45 25.7881 26C25.7881 26.55 25.3418 27 24.7963 27ZM28.7637 21H18.845C18.2995 21 17.8532 20.55 17.8532 20C17.8532 19.45 18.2995 19 18.845 19H28.7637C29.3093 19 29.7556 19.45 29.7556 20C29.7556 20.55 29.3093 21 28.7637 21Z" fill="#8B96A5"/>
</svg>
