<svg width="49" height="48" viewBox="0 0 49 48" fill="none" xmlns="http://www.w3.org/2000/svg">
<ellipse cx="24.0992" cy="24" rx="24.0992" ry="24" fill="#F1F1F1"/>
<path fill-rule="evenodd" clip-rule="evenodd" d="M30.1243 20H29.1201V18C29.1201 15.24 26.8709 13 24.0995 13C21.3281 13 19.0788 15.24 19.0788 18V20H18.0747C16.9701 20 16.0664 20.9 16.0664 22V32C16.0664 33.1 16.9701 34 18.0747 34H30.1243C31.2288 34 32.1325 33.1 32.1325 32V22C32.1325 20.9 31.2288 20 30.1243 20ZM24.0994 29C22.9949 29 22.0912 28.1 22.0912 27C22.0912 25.9 22.9949 25 24.0994 25C25.204 25 26.1077 25.9 26.1077 27C26.1077 28.1 25.204 29 24.0994 29ZM21.087 20V18C21.087 16.34 22.4326 15 24.0994 15C25.7663 15 27.1118 16.34 27.1118 18V20H21.087Z" fill="#8B96A5"/>
</svg>
