<svg width="797" height="750" viewBox="0 0 797 750" fill="none" xmlns="http://www.w3.org/2000/svg">
<path d="M28.0874 264.26H258.683C274.132 264.26 286.771 254.67 286.771 242.948C286.771 231.223 274.132 221.632 258.683 221.632H124.383C108.935 221.632 96.2957 211.404 96.2957 198.899C96.2957 186.397 108.935 176.17 124.383 176.17H162.48C177.929 176.17 190.568 166.579 190.568 154.859C190.568 143.138 177.929 133.547 162.48 133.547H29.7064C14.2577 133.547 1.61865 123.32 1.61865 110.818C1.61865 98.3167 14.2577 88.0893 29.7064 88.0893H208.699C224.147 88.0893 236.786 78.4987 236.786 66.7783C236.786 55.0476 224.147 45.457 208.699 45.457H68.7188C53.2701 45.457 40.6306 35.2297 40.6306 22.7282C40.6306 10.2268 53.2701 0 68.7188 0H796.23C796.23 16.5 796.23 10.2274 796.23 22.7288C796.23 35.2303 796.23 62.5 796.23 45.4576C796.23 53.5 796.23 55.0476 796.23 66.7789C796.23 78.4999 796.23 72 796.23 88.0899C796.23 103 796.23 98.3173 796.23 110.819C796.23 123.32 796.23 138 796.23 133.548C796.23 141.5 796.23 143.138 796.23 154.859C796.23 166.58 796.23 165 796.23 176.171C796.23 188.5 796.23 186.398 796.23 198.899C796.23 211.405 796.23 211.5 796.23 221.633C796.23 231.766 796.23 231.223 796.23 242.949C796.23 254.67 796.23 264.261 796.23 264.261C796.23 264.261 796.23 274.488 796.23 286.989C796.23 299.491 796.23 309.718 796.23 309.718C795.73 310.219 796.23 319.309 796.23 331.03C796.23 341.925 796.23 352.192 796.23 352.192C796.23 352.192 796.23 362.419 796.23 374.921C796.23 387.427 796.23 397.655 796.23 397.655V397.809C796.23 397 796.23 408.076 796.23 418.971C796.23 430.692 796.23 440.282 796.23 440.282C796.23 440.282 796.23 450.51 796.23 463.011C796.23 475.512 796.23 485.74 796.23 485.74C796.23 485.74 796.23 495.33 796.23 507.051C796.23 518.777 796.23 528.367 796.23 528.367C796.23 528.367 796.23 538.595 796.23 551.101C796.23 563.602 796.23 573.829 796.23 573.829C796.23 573.829 796.23 583.419 796.23 595.141C796.23 606.862 796.23 616.452 796.23 616.452C796.23 616.452 796.23 626.68 796.23 639.181C796.23 651.682 796.23 661.91 796.23 661.91C796.23 661.91 796.23 671.5 796.23 683.221C796.23 694.952 796.23 704.542 796.23 704.542C796.23 704.542 796.23 714.77 796.23 727.271C796.23 739.773 796.23 750 796.23 750H86.181C70.7323 750 58.0934 739.773 58.0934 727.271C58.0934 714.77 70.7323 704.542 86.181 704.542H219.365C234.813 704.542 247.452 694.952 247.452 683.221C247.452 671.5 234.813 661.91 219.365 661.91H166.228C150.779 661.91 138.14 651.682 138.14 639.181C138.14 626.68 150.779 616.452 166.228 616.452H287.485C302.933 616.452 315.573 606.861 315.573 595.141C315.573 583.42 302.934 573.829 287.485 573.829H94.6997C79.251 573.829 66.6116 563.602 66.6116 551.101C66.6116 538.595 79.2505 528.367 94.6997 528.367H169.381C184.829 528.367 197.469 518.777 197.469 507.051C197.469 495.33 184.829 485.74 169.381 485.74H65.0565C49.6078 485.74 36.9689 475.512 36.9689 463.011C36.9689 450.51 49.6078 440.282 65.0565 440.282H250.911C266.36 440.282 278.999 430.692 278.999 418.971C278.999 408.076 268.083 399.037 254.145 397.809H75.6187C60.17 397.809 47.5315 387.581 47.5315 375.08C47.5315 362.574 60.1705 352.346 75.6187 352.346H91.5494C92.5853 352.251 93.6342 352.192 94.7003 352.192H202.288C216.227 350.964 227.143 341.925 227.143 331.03C227.143 319.309 214.504 309.718 199.055 309.718H28.0885C12.6398 309.718 0.000854492 299.491 0.000854492 286.989C0.000854492 274.488 12.6387 264.26 28.0874 264.26Z" fill="#252525"/>
</svg>
