<svg width="1440" height="750" viewBox="0 0 1440 750" fill="none" xmlns="http://www.w3.org/2000/svg">
<g clip-path="url(#clip0_1653_7864)">
<rect width="1440" height="750" fill="#F2C242"/>
<mask id="mask0_1653_7864" style="mask-type:luminance" maskUnits="userSpaceOnUse" x="-510" y="0" width="1950" height="750">
<path d="M1440 0H-510V750H1440V0Z" fill="white"/>
</mask>
<g mask="url(#mask0_1653_7864)">
<path d="M833.143 264.26H602.547C587.098 264.26 574.459 254.67 574.459 242.948C574.459 231.223 587.098 221.632 602.547 221.632H736.847C752.296 221.632 764.935 211.404 764.935 198.899C764.935 186.397 752.296 176.17 736.847 176.17H698.75C683.302 176.17 670.662 166.579 670.662 154.859C670.662 143.138 683.301 133.547 698.75 133.547H831.524C846.973 133.547 859.612 123.32 859.612 110.818C859.612 98.3167 846.973 88.0893 831.524 88.0893H652.532C637.083 88.0893 624.444 78.4987 624.444 66.7783C624.444 55.0476 637.083 45.457 652.532 45.457H792.512C807.961 45.457 820.6 35.2297 820.6 22.7282C820.6 10.2268 807.961 0 792.512 0H-744.819C-760.268 0 -772.906 10.2274 -772.906 22.7288C-772.906 35.2303 -760.267 45.4576 -744.819 45.4576H-561.635C-546.186 45.4576 -533.547 55.0476 -533.547 66.7789C-533.547 78.4999 -546.186 88.0899 -561.635 88.0899H-614.772C-630.221 88.0899 -642.859 98.3173 -642.859 110.819C-642.859 123.32 -630.22 133.548 -614.772 133.548H-463.515C-448.066 133.548 -435.427 143.138 -435.427 154.859C-435.427 166.58 -448.066 176.171 -463.515 176.171H-686.3C-701.749 176.171 -714.388 186.398 -714.388 198.899C-714.388 211.405 -701.749 221.633 -686.3 221.633H-611.619C-596.17 221.633 -583.531 231.223 -583.531 242.949C-583.531 254.67 -596.17 264.261 -611.619 264.261H-765.944C-781.393 264.261 -794.031 274.488 -794.031 286.989C-794.031 299.491 -781.393 309.718 -765.944 309.718H-500.089C-484.64 309.718 -472.001 319.309 -472.001 331.03C-472.001 341.925 -482.918 350.964 -496.856 352.192H-705.382C-720.83 352.192 -733.469 362.419 -733.469 374.921C-733.469 387.427 -720.83 397.655 -705.382 397.655H-689.451C-688.415 397.749 -687.367 397.809 -686.3 397.809H-578.713C-564.774 399.037 -553.857 408.076 -553.857 418.971C-553.857 430.692 -566.497 440.282 -581.945 440.282H-802.912C-818.362 440.282 -831 450.51 -831 463.011C-831 475.512 -818.361 485.74 -802.912 485.74H-492.317C-476.868 485.74 -464.23 495.33 -464.23 507.051C-464.23 518.777 -476.869 528.367 -492.317 528.367H-656.617C-672.066 528.367 -684.705 538.595 -684.705 551.101C-684.705 563.602 -672.066 573.829 -656.617 573.829H-618.52C-603.071 573.829 -590.432 583.419 -590.432 595.141C-590.432 606.862 -603.071 616.452 -618.52 616.452H-801.294C-816.742 616.452 -829.381 626.68 -829.381 639.181C-829.381 651.682 -816.742 661.91 -801.294 661.91H-542.302C-526.853 661.91 -514.214 671.5 -514.214 683.221C-514.214 694.952 -526.853 704.542 -542.302 704.542H-762.281C-777.729 704.542 -790.369 714.77 -790.369 727.271C-790.369 739.773 -777.73 750 -762.281 750H775.05C790.498 750 803.137 739.773 803.137 727.271C803.137 714.77 790.498 704.542 775.05 704.542H641.866C626.417 704.542 613.778 694.952 613.778 683.221C613.778 671.5 626.417 661.91 641.866 661.91H695.002C710.451 661.91 723.09 651.682 723.09 639.181C723.09 626.68 710.451 616.452 695.002 616.452H573.746C558.297 616.452 545.658 606.861 545.658 595.141C545.658 583.42 558.297 573.829 573.746 573.829H766.531C781.98 573.829 794.619 563.602 794.619 551.101C794.619 538.595 781.98 528.367 766.531 528.367H691.85C676.401 528.367 663.762 518.777 663.762 507.051C663.762 495.33 676.401 485.74 691.85 485.74H796.174C811.623 485.74 824.262 475.512 824.262 463.011C824.262 450.51 811.623 440.282 796.174 440.282H610.319C594.87 440.282 582.231 430.692 582.231 418.971C582.231 408.076 593.147 399.037 607.086 397.809H785.612C801.061 397.809 813.699 387.581 813.699 375.08C813.699 362.574 801.06 352.346 785.612 352.346H769.681C768.645 352.251 767.596 352.192 766.53 352.192H658.942C645.003 350.964 634.087 341.925 634.087 331.03C634.087 319.309 646.726 309.718 662.176 309.718H833.142C848.591 309.718 861.23 299.491 861.23 286.989C861.23 274.488 848.592 264.26 833.143 264.26Z" fill="#1E1E1E"/>
</g>
</g>
<defs>
<clipPath id="clip0_1653_7864">
<rect width="1440" height="750" fill="white"/>
</clipPath>
</defs>
</svg>
