<svg width="16" height="17" viewBox="0 0 16 17" fill="none" xmlns="http://www.w3.org/2000/svg">
<path d="M9.5 13.8124V10.6249C9.5 10.484 9.44732 10.3489 9.35355 10.2493C9.25979 10.1496 9.13261 10.0937 9 10.0937H7C6.86739 10.0937 6.74021 10.1496 6.64645 10.2493C6.55268 10.3489 6.5 10.484 6.5 10.6249V13.8124C6.5 13.9533 6.44732 14.0884 6.35355 14.1881C6.25979 14.2877 6.13261 14.3437 6 14.3437H3C2.86739 14.3437 2.74021 14.2877 2.64645 14.1881C2.55268 14.0884 2.5 13.9533 2.5 13.8124V7.66985C2.50112 7.59633 2.51607 7.52379 2.54398 7.4565C2.57189 7.38921 2.61219 7.32854 2.6625 7.27805L7.6625 2.45032C7.75467 2.36072 7.87507 2.31104 8 2.31104C8.12493 2.31104 8.24533 2.36072 8.3375 2.45032L13.3375 7.27805C13.3878 7.32854 13.4281 7.38921 13.456 7.4565C13.4839 7.52379 13.4989 7.59633 13.5 7.66985V13.8124C13.5 13.9533 13.4473 14.0884 13.3536 14.1881C13.2598 14.2877 13.1326 14.3437 13 14.3437H10C9.86739 14.3437 9.74021 14.2877 9.64645 14.1881C9.55268 14.0884 9.5 13.9533 9.5 13.8124Z" stroke="white" stroke-linecap="round" stroke-linejoin="round"/>
</svg>
