<svg width="45" height="22" viewBox="0 0 45 22" fill="none" xmlns="http://www.w3.org/2000/svg">
<path d="M1.04297 4C1.04297 2.067 2.60997 0.5 4.54297 0.5H40.5001C42.4331 0.5 44.0001 2.067 44.0001 4V18C44.0001 19.933 42.4331 21.5 40.5001 21.5H4.54297C2.60997 21.5 1.04297 19.933 1.04297 18V4Z" fill="white" stroke="#EEEEEE"/>
<path fill-rule="evenodd" clip-rule="evenodd" d="M15.5144 7H14.0216L12.9085 8.99471L11.7141 7H10.2482V9.77159L8.70087 7H7.34364L5.71484 9.93963H6.69208L7.04492 9.28863H8.94508L9.29792 9.93963H11.144V7.63L12.474 9.93963H13.2612L14.5914 7.63V9.93963H15.5144V7ZM35.7656 9.93963H34.4629L32.7526 7.73487V9.93963H30.9069L30.5537 9.28863H28.6536L28.3007 9.93963H27.2418C26.8075 9.93963 26.2374 9.85561 25.9119 9.60355C25.6132 9.35164 25.4503 9.01572 25.4503 8.49074C25.4503 8.04979 25.5317 7.65085 25.9387 7.33593C26.2101 7.10487 26.6989 7 27.3231 7H28.1917V7.63H27.3231C26.9976 7.63 26.8073 7.67201 26.6174 7.79804C26.4545 7.92407 26.373 8.15497 26.373 8.46989C26.373 8.78481 26.4545 9.01587 26.6174 9.1629C26.753 9.26778 26.9976 9.30978 27.2416 9.30978H27.649L28.9519 7.00015H30.3093L31.8295 9.77174V7H33.2412L34.8429 9.03672V7H35.7656V9.93963ZM34.4629 13.4462C34.2456 13.2991 33.9197 13.2152 33.404 13.2152H32.9155C32.7819 13.2152 32.6743 13.1946 32.5674 13.1742L32.5627 13.1733C32.4539 13.1312 32.3728 13.0682 32.3728 12.9631C32.3728 12.8581 32.3998 12.7951 32.5084 12.7321C32.5899 12.6902 32.6983 12.6902 32.8612 12.6902H34.5443V12.0602H32.7256C31.7482 12.0602 31.4223 12.5222 31.4223 12.9423C31.4223 13.8069 32.3502 13.8254 33.1592 13.8416C33.2144 13.8427 33.2691 13.8438 33.3229 13.8452C33.4854 13.8452 33.5943 13.866 33.6484 13.9082C33.7025 13.9501 33.7572 14.0339 33.7572 14.1181C33.7572 14.202 33.7027 14.265 33.6484 14.3071C33.5669 14.349 33.4585 14.3699 33.2955 14.3699H31.531V14.9998H33.2955C34.2183 14.9998 34.7342 14.7061 34.7342 14.0762C34.7342 13.7823 34.6258 13.5931 34.4629 13.4462ZM38.2905 14.0762C38.2905 14.7062 37.7748 14.9998 36.8516 14.9998H35.0875V14.3699H36.8516C37.0146 14.3699 37.1504 14.349 37.2049 14.3071C37.259 14.265 37.3133 14.202 37.3133 14.1181C37.3133 14.0339 37.2592 13.9501 37.2049 13.9082C37.1504 13.866 37.0419 13.8452 36.879 13.8452C36.8251 13.8438 36.7704 13.8427 36.715 13.8416C35.9065 13.8254 34.9788 13.8069 34.9788 12.9423C34.9788 12.5222 35.3317 12.0602 36.2818 12.0602H38.1004V12.6902H36.4173C36.2548 12.6902 36.146 12.6902 36.0645 12.7321C35.983 12.7951 35.9289 12.8581 35.9289 12.9631C35.9289 13.0682 36.0104 13.1312 36.1188 13.1733L36.1212 13.1738C36.2292 13.1945 36.3372 13.2152 36.472 13.2152H36.9605C37.4762 13.2152 37.8021 13.2991 38.0194 13.4462C38.1819 13.5931 38.2905 13.7823 38.2905 14.0762ZM28.8438 14.3912H30.988V15H27.9479V12.0605H30.988V12.6694H28.8438V13.2155H30.9339V13.8032H28.8438V14.3912ZM26.9704 12.2076C26.6717 12.0815 26.3189 12.0604 25.8574 12.0604H23.7674V14.9998H24.6901V13.9291H25.6675C25.993 13.9291 26.1833 13.9502 26.3191 14.0551C26.482 14.202 26.482 14.454 26.482 14.6431V14.9998H27.3776V14.4329C27.3776 14.16 27.3506 14.0339 27.242 13.887C27.1605 13.8029 26.998 13.698 26.7807 13.635C27.0248 13.5723 27.4323 13.3202 27.4323 12.8581C27.4321 12.5223 27.2692 12.3333 26.9704 12.2076ZM18.9079 12.0604H21.8127C22.5186 12.0604 23.3331 12.2284 23.3333 13.0263C23.3333 13.8452 22.5457 14.0132 21.7586 14.0132H20.6184V14.9998H18.8538L17.7408 14.0339L16.5735 14.9998H12.9629V12.0604H16.6276L17.7406 13.0263L18.9079 12.0604ZM26.2374 13.2784C26.1018 13.3202 25.9661 13.3202 25.8031 13.3202L24.6901 13.3414V12.6692H25.8031C25.9661 12.6692 26.129 12.6692 26.2374 12.7322C26.3462 12.7744 26.4273 12.8583 26.4273 12.9843C26.4273 13.1103 26.3462 13.2153 26.2374 13.2784ZM20.6182 13.4252H21.8127C22.1384 13.4252 22.3556 13.2784 22.3556 13.0263C22.3556 12.7744 22.1386 12.6692 21.8127 12.6692H20.6182V13.4252ZM18.3107 13.5301L19.7222 12.3754V14.7481L18.3107 13.5301ZM13.8586 14.3912H16.1118L17.1434 13.5303L16.139 12.6694H13.8586V13.2155H15.8674V13.8032H13.8586V14.3912ZM24.0661 7H24.9888V9.93963H24.0661V7ZM23.0613 7.12603C22.7626 7 22.4371 7 21.9756 7H19.8852V9.93963H20.7809V8.86868H21.7582C22.0841 8.86868 22.3013 8.88969 22.4369 8.99471C22.5802 9.12403 22.5763 9.3346 22.5733 9.49769C22.5729 9.52002 22.5725 9.54147 22.5725 9.56169V9.93963H23.4952V9.35164C23.4952 9.09974 23.4683 8.97371 23.3327 8.82667C23.2512 8.74265 23.0883 8.63763 22.8984 8.57476C23.1424 8.49074 23.5499 8.25984 23.5499 7.79788C23.5501 7.46196 23.3598 7.27291 23.0613 7.12603ZM17.1162 9.33079H19.2336V9.93978H16.1933V7.00015H19.2336V7.60899H17.1162V8.13396H19.2065V8.7428H17.1162V9.33079ZM29.6036 7.50397L30.2282 8.65878H28.9794L29.6036 7.50397ZM22.3556 8.19698C22.22 8.25999 22.0843 8.25999 21.8942 8.25999H20.781V7.60914H21.894C22.0569 7.60914 22.2466 7.60914 22.3554 7.65115C22.4639 7.71417 22.5184 7.79819 22.5184 7.92407C22.5184 8.04994 22.4641 8.15482 22.3556 8.19698ZM7.995 7.50397L7.3706 8.65878H8.6194L7.995 7.50397Z" fill="#0077A6"/>
</svg>
