<svg width="45" height="22" viewBox="0 0 45 22" fill="none" xmlns="http://www.w3.org/2000/svg">
<path d="M0.642578 4C0.642578 2.067 2.20958 0.5 4.14258 0.5H40.0997C42.0327 0.5 43.5997 2.067 43.5997 4V18C43.5997 19.933 42.0327 21.5 40.0997 21.5H4.14258C2.20958 21.5 0.642578 19.933 0.642578 18V4Z" fill="white" stroke="#EEEEEE"/>
<path d="M27.4204 5.05579C26.5962 4.31682 25.1064 4 23.2004 4H17.6688C17.2792 4.00001 16.9475 4.22284 16.8864 4.5255L14.5831 16.0167C14.5373 16.2433 14.7604 16.4485 15.0524 16.4485H18.4674L19.3251 12.1691L19.2984 12.3031C19.3595 12.0007 19.6884 11.7775 20.0779 11.7775H21.7007C24.8887 11.7775 27.385 10.7589 28.1142 7.81228C28.1358 7.72513 28.1546 7.64031 28.1708 7.55744C28.0787 7.5191 28.0787 7.5191 28.1708 7.55744C28.3879 6.46833 28.1693 5.72698 27.4204 5.05579Z" fill="#27346A"/>
<path d="M20.6318 7.1651C20.7251 7.13013 20.8273 7.11201 20.9307 7.11206H25.2674C25.7809 7.11206 26.2599 7.13835 26.6976 7.19377C26.8201 7.20913 26.9419 7.22747 27.063 7.24876C27.2345 7.27854 27.4041 7.31499 27.5711 7.35797C27.7862 7.4145 27.9866 7.48034 28.1708 7.55744C28.3879 6.46791 28.1693 5.72698 27.4204 5.05579C26.5957 4.31682 25.1064 4 23.2004 4H17.6683C17.2788 4 16.9474 4.22306 16.8864 4.5255L14.5831 16.0163C14.5373 16.2432 14.7604 16.4481 15.0519 16.4481H18.4674L20.2468 7.57177C20.2823 7.39466 20.4263 7.24261 20.6318 7.1651Z" fill="#27346A"/>
<path d="M28.1144 7.81221C27.3852 10.7584 24.889 11.7775 21.7009 11.7775H20.0776C19.6882 11.7775 19.3593 12.0006 19.2987 12.3031L18.2318 17.6239C18.1919 17.8222 18.3868 18.0019 18.6419 18.0019H21.5207C21.8614 18.0019 22.1514 17.8069 22.2046 17.5422L22.2327 17.4268L22.7752 14.7218L22.8102 14.5723C22.8634 14.3076 23.1534 14.1127 23.4941 14.1126H23.9249C26.7136 14.1126 28.8972 13.2214 29.5354 10.6438C29.8017 9.56669 29.6639 8.66737 28.9593 8.03569C28.7456 7.84437 28.4802 7.68635 28.171 7.55737C28.1543 7.64066 28.1361 7.72506 28.1144 7.81221Z" fill="#2790C3"/>
<path d="M27.4075 7.3179C27.2938 7.29178 27.1791 7.26866 27.0634 7.24857C26.9423 7.22762 26.8205 7.20941 26.698 7.19394C26.2599 7.13815 25.7812 7.11182 25.2672 7.11182H20.9311C20.8276 7.11163 20.7254 7.12991 20.6322 7.16528C20.4264 7.24256 20.2823 7.39472 20.2471 7.57195L19.3254 12.1689L19.2988 12.3029C19.3595 12.0005 19.6883 11.7773 20.0778 11.7773H21.7011C24.8891 11.7773 27.3854 10.7587 28.1146 7.81208C28.1363 7.72493 28.1545 7.64048 28.1712 7.55724C27.9866 7.48056 27.7867 7.4143 27.5714 7.35814C27.5171 7.34398 27.4625 7.33056 27.4076 7.3179" fill="#1F264F"/>
</svg>
