<svg width="45" height="22" viewBox="0 0 45 22" fill="none" xmlns="http://www.w3.org/2000/svg">
<path d="M1.34277 4C1.34277 2.067 2.90978 0.5 4.84277 0.5H40.7999C42.7329 0.5 44.2999 2.067 44.2999 4V18C44.2999 19.933 42.7329 21.5 40.7999 21.5H4.84277C2.90978 21.5 1.34277 19.933 1.34277 18V4Z" fill="white" stroke="#EEEEEE"/>
<path fill-rule="evenodd" clip-rule="evenodd" d="M20.3515 10.8527C20.3515 9.01576 21.4488 7.38029 23.1572 6.3219C21.8974 5.54145 20.306 5.07422 18.5741 5.07422C14.4936 5.07422 11.1855 7.66135 11.1855 10.8527C11.1855 14.044 14.4936 16.6311 18.5741 16.6311C20.306 16.6311 21.8974 16.1639 23.1572 15.3834C21.4488 14.3251 20.3515 12.6896 20.3515 10.8527Z" fill="#EB001B"/>
<path fill-rule="evenodd" clip-rule="evenodd" d="M20.3516 10.8528C20.3516 12.6897 21.4488 14.3252 23.1572 15.3836C24.8655 14.3252 25.9628 12.6897 25.9628 10.8528C25.9628 9.01588 24.8655 7.38041 23.1572 6.32202C21.4488 7.38041 20.3516 9.01588 20.3516 10.8528Z" fill="#FF5E00"/>
<path fill-rule="evenodd" clip-rule="evenodd" d="M27.7402 5.07422C26.0083 5.07422 24.4169 5.54145 23.1572 6.3219C24.8655 7.38037 25.9628 9.01576 25.9628 10.8527C25.9628 12.6896 24.8655 14.3251 23.1572 15.3834C24.4169 16.1639 26.0083 16.6311 27.7402 16.6311C31.8207 16.6311 35.1288 14.044 35.1288 10.8527C35.1288 7.66135 31.8207 5.07422 27.7402 5.07422Z" fill="#F79E1C"/>
</svg>
