<svg width="45" height="22" viewBox="0 0 45 22" fill="none" xmlns="http://www.w3.org/2000/svg">
<path d="M0.943359 4C0.943359 2.067 2.51036 0.5 4.44336 0.5H40.4005C42.3335 0.5 43.9005 2.067 43.9005 4V18C43.9005 19.933 42.3335 21.5 40.4005 21.5H4.44336C2.51036 21.5 0.943359 19.933 0.943359 18V4Z" fill="white" stroke="#EEEEEE"/>
<path fill-rule="evenodd" clip-rule="evenodd" d="M28.0605 7.33436L27.7014 8.98113C26.6244 8.51036 24.1734 8.39897 24.1732 9.26605C24.1732 9.61051 24.7277 9.84741 25.3961 10.1329C26.4098 10.566 27.6853 11.1108 27.6853 12.3124C27.6853 14.2324 25.0945 14.9378 23.377 14.9378C21.6601 14.9378 20.5364 14.5048 20.5364 14.5048L20.9105 12.783C21.9409 13.4392 25.0632 13.6256 25.0632 12.585C25.0632 12.1478 24.4485 11.8899 23.7358 11.5908C22.7524 11.1783 21.5823 10.6873 21.5823 9.53867C21.5823 7.43303 24.5481 7 25.797 7C26.9523 7 28.0605 7.33436 28.0605 7.33436ZM36.4576 14.8055H34.1468L33.852 13.6665H30.6527L30.1281 14.8055H27.5046L31.258 7.70831C31.258 7.70831 31.4856 7.13682 32.4198 7.13682H34.4428L36.4576 14.8055ZM14.3518 7.13703L11.9526 12.4115L11.6686 11.2757L11.6689 11.2761L10.8221 7.82749C10.8221 7.82749 10.7197 7.13703 9.62826 7.13703H5.66178L5.61523 7.26687C5.61523 7.26687 6.82819 7.46708 8.24775 8.14338L10.4342 14.8057H13.0564L17.0604 7.13703H14.3518ZM18.9857 14.8055H16.469L18.0419 7.13703H20.5589L18.9857 14.8055ZM31.3775 12.0929L32.6998 9.22318L33.4437 12.0929H31.3775Z" fill="#2566AF"/>
<path d="M11.6689 11.2758L10.8221 7.82718C10.8221 7.82718 10.7197 7.13672 9.62826 7.13672H5.66178L5.61523 7.26656C5.61523 7.26656 7.52168 7.58 9.3503 8.75436C11.0988 9.87682 11.6689 11.2758 11.6689 11.2758Z" fill="#E6A540"/>
</svg>
